{
	"asset":{
		"generator":"Khronos glTF Blender I/O v4.2.83",
		"version":"2.0"
	},
	"extensionsUsed":[
		"KHR_materials_emissive_strength",
		"KHR_materials_specular"
	],
	"scene":0,
	"scenes":[
		{
			"name":"Scene",
			"nodes":[
				66,
				67
			]
		}
	],
	"nodes":[
		{
			"name":"explosion_locator_01",
			"rotation":[
				0.27059805393218994,
				0.6532815098762512,
				-0.6532815098762512,
				0.27059805393218994
			],
			"scale":[
				0.9999999403953552,
				0.9999999403953552,
				0.9999998807907104
			],
			"translation":[
				12.928545951843262,
				-19.157629013061523,
				0.6261104345321655
			]
		},
		{
			"name":"explosion_locator_02",
			"rotation":[
				0.27059805393218994,
				0.6532815098762512,
				-0.6532815098762512,
				0.27059805393218994
			],
			"scale":[
				0.9999999403953552,
				0.9999999403953552,
				0.9999998807907104
			],
			"translation":[
				8.677660942077637,
				-31.92266845703125,
				-4.8371477127075195
			]
		},
		{
			"name":"explosion_locator_03",
			"rotation":[
				0.27059805393218994,
				0.6532815098762512,
				-0.6532815098762512,
				0.27059805393218994
			],
			"scale":[
				0.9999999403953552,
				0.9999999403953552,
				0.9999998807907104
			],
			"translation":[
				-7.610924243927002,
				-31.73951530456543,
				-3.1386489868164062
			]
		},
		{
			"name":"explosion_locator_04",
			"rotation":[
				0.27059805393218994,
				0.6532815098762512,
				-0.6532815098762512,
				0.27059805393218994
			],
			"scale":[
				0.9999999403953552,
				0.9999999403953552,
				0.9999998807907104
			],
			"translation":[
				2.860957622528076,
				-31.92266845703125,
				9.773160934448242
			]
		},
		{
			"name":"explosion_locator_17",
			"rotation":[
				0.27059805393218994,
				0.6532815098762512,
				-0.6532815098762512,
				0.27059805393218994
			],
			"scale":[
				0.9999999403953552,
				0.9999999403953552,
				0.9999998807907104
			],
			"translation":[
				12.375945091247559,
				-19.154296875,
				-1.1388638019561768
			]
		},
		{
			"name":"explosion_locator_18",
			"rotation":[
				0.27059805393218994,
				0.6532815098762512,
				-0.6532815098762512,
				0.27059805393218994
			],
			"scale":[
				0.9999999403953552,
				0.9999999403953552,
				0.9999998807907104
			],
			"translation":[
				1.264817476272583,
				-31.74232292175293,
				-4.879247665405273
			]
		},
		{
			"name":"explosion_locator_19",
			"rotation":[
				0.27059805393218994,
				0.6532815098762512,
				-0.6532815098762512,
				0.27059805393218994
			],
			"scale":[
				0.9999999403953552,
				0.9999999403953552,
				0.9999998807907104
			],
			"translation":[
				0.01992654614150524,
				-31.92591094970703,
				13.534737586975098
			]
		},
		{
			"name":"explosion_locator_20",
			"rotation":[
				0.27059805393218994,
				0.6532815098762512,
				-0.6532815098762512,
				0.27059805393218994
			],
			"scale":[
				0.9999999403953552,
				0.9999999403953552,
				0.9999998807907104
			],
			"translation":[
				-13.534846305847168,
				-24.42758560180664,
				-0.020038604736328125
			]
		},
		{
			"name":"explosion_locator_32",
			"rotation":[
				0.27059805393218994,
				0.6532815098762512,
				-0.6532815098762512,
				0.27059805393218994
			],
			"scale":[
				0.9999999403953552,
				0.9999999403953552,
				0.9999998807907104
			],
			"translation":[
				12.928572654724121,
				-31.92608642578125,
				0.6260936856269836
			]
		},
		{
			"name":"explosion_locator_33",
			"rotation":[
				0.27059805393218994,
				0.6532815098762512,
				-0.6532815098762512,
				0.27059805393218994
			],
			"scale":[
				0.9999999403953552,
				0.9999999403953552,
				0.9999998807907104
			],
			"translation":[
				-9.006739616394043,
				-27.173290252685547,
				-4.5481414794921875
			]
		},
		{
			"name":"explosion_locator_34",
			"rotation":[
				0.27059805393218994,
				0.6532815098762512,
				-0.6532815098762512,
				0.27059805393218994
			],
			"scale":[
				0.9999999403953552,
				0.9999999403953552,
				0.9999998807907104
			],
			"translation":[
				0.08877110481262207,
				-20.910491943359375,
				-7.378235816955566
			]
		},
		{
			"name":"explosion_locator_35",
			"rotation":[
				0.27059805393218994,
				0.6532815098762512,
				-0.6532815098762512,
				0.27059805393218994
			],
			"scale":[
				0.9999999403953552,
				0.9999999403953552,
				0.9999998807907104
			],
			"translation":[
				-2.7717843055725098,
				-19.337200164794922,
				9.018743515014648
			]
		},
		{
			"children":[
				0,
				1,
				2,
				3,
				4,
				5,
				6,
				7,
				8,
				9,
				10,
				11
			],
			"name":"cube1",
			"rotation":[
				0,
				-0.9238795638084412,
				0,
				0.3826834559440613
			],
			"scale":[
				0.9999999403953552,
				1,
				0.9999999403953552
			],
			"translation":[
				-9.58470344543457,
				2.6232147216796875,
				-9.556412696838379
			]
		},
		{
			"name":"explosion_locator_05",
			"rotation":[
				0.6532815098762512,
				0.27059805393218994,
				-0.27059805393218994,
				0.6532815098762512
			],
			"scale":[
				0.9999999403953552,
				0.9999999403953552,
				0.9999998807907104
			],
			"translation":[
				-12.928606033325195,
				-31.92261505126953,
				0.6261643767356873
			]
		},
		{
			"name":"explosion_locator_06",
			"rotation":[
				0.6532815098762512,
				0.27059805393218994,
				-0.27059805393218994,
				0.6532815098762512
			],
			"scale":[
				0.9999999403953552,
				0.9999999403953552,
				0.9999998807907104
			],
			"translation":[
				9.36536979675293,
				-31.92261505126953,
				-1.6322859525680542
			]
		},
		{
			"name":"explosion_locator_07",
			"rotation":[
				0.6532815098762512,
				0.27059805393218994,
				-0.27059805393218994,
				0.6532815098762512
			],
			"scale":[
				0.9999999403953552,
				0.9999999403953552,
				0.9999998807907104
			],
			"translation":[
				8.230252265930176,
				-19.157573699951172,
				-5.324519634246826
			]
		},
		{
			"name":"explosion_locator_08",
			"rotation":[
				0.6532815098762512,
				0.27059805393218994,
				-0.27059805393218994,
				0.6532815098762512
			],
			"scale":[
				0.9999999403953552,
				0.9999999403953552,
				0.9999998807907104
			],
			"translation":[
				0.019981298595666885,
				-20.249420166015625,
				-13.5347900390625
			]
		},
		{
			"name":"explosion_locator_21",
			"rotation":[
				0.6532815098762512,
				0.27059805393218994,
				-0.27059805393218994,
				0.6532815098762512
			],
			"scale":[
				0.9999999403953552,
				0.9999999403953552,
				0.9999998807907104
			],
			"translation":[
				12.2029390335083,
				-31.925899505615234,
				-0.24543839693069458
			]
		},
		{
			"name":"explosion_locator_22",
			"rotation":[
				0.6532815098762512,
				0.27059805393218994,
				-0.27059805393218994,
				0.6532815098762512
			],
			"scale":[
				0.9999999403953552,
				0.9999999403953552,
				0.9999998807907104
			],
			"translation":[
				-3.5268959999084473,
				-31.92589569091797,
				9.392369270324707
			]
		},
		{
			"name":"explosion_locator_23",
			"rotation":[
				0.6532815098762512,
				0.27059805393218994,
				-0.27059805393218994,
				0.6532815098762512
			],
			"scale":[
				0.9999999403953552,
				0.9999999403953552,
				0.9999998807907104
			],
			"translation":[
				-11.558395385742188,
				-19.325103759765625,
				0.06707108020782471
			]
		},
		{
			"name":"explosion_locator_36",
			"rotation":[
				0.6532815098762512,
				0.27059805393218994,
				-0.27059805393218994,
				0.6532815098762512
			],
			"scale":[
				0.9999999403953552,
				0.9999999403953552,
				0.9999998807907104
			],
			"translation":[
				-12.928625106811523,
				-31.926040649414062,
				0.6261444687843323
			]
		},
		{
			"name":"explosion_locator_37",
			"rotation":[
				0.6532815098762512,
				0.27059805393218994,
				-0.27059805393218994,
				0.6532815098762512
			],
			"scale":[
				0.9999999403953552,
				0.9999999403953552,
				0.9999998807907104
			],
			"translation":[
				9.006682395935059,
				-27.173248291015625,
				-4.548087120056152
			]
		},
		{
			"name":"explosion_locator_38",
			"rotation":[
				0.6532815098762512,
				0.27059805393218994,
				-0.27059805393218994,
				0.6532815098762512
			],
			"scale":[
				0.9999999403953552,
				0.9999999403953552,
				0.9999998807907104
			],
			"translation":[
				-0.019981861114501953,
				-19.154144287109375,
				13.534789085388184
			]
		},
		{
			"children":[
				13,
				14,
				15,
				16,
				17,
				18,
				19,
				20,
				21,
				22
			],
			"name":"cube2",
			"rotation":[
				0,
				-0.3826834261417389,
				0,
				0.9238795638084412
			],
			"translation":[
				-9.584626197814941,
				2.623171806335449,
				9.556413650512695
			]
		},
		{
			"name":"explosion_locator_09",
			"rotation":[
				0.6532815098762512,
				-0.27059805393218994,
				0.27059805393218994,
				0.6532815098762512
			],
			"scale":[
				0.9999999403953552,
				0.9999999403953552,
				0.9999998807907104
			],
			"translation":[
				-1.9676709175109863,
				-19.157630920410156,
				-6.7406744956970215
			]
		},
		{
			"name":"explosion_locator_10",
			"rotation":[
				0.6532815098762512,
				-0.27059805393218994,
				0.27059805393218994,
				0.6532815098762512
			],
			"scale":[
				0.9999999403953552,
				0.9999999403953552,
				0.9999998807907104
			],
			"translation":[
				-0.05032157897949219,
				-31.16427230834961,
				-4.519585132598877
			]
		},
		{
			"name":"explosion_locator_11",
			"rotation":[
				0.6532815098762512,
				-0.27059805393218994,
				0.27059805393218994,
				0.6532815098762512
			],
			"scale":[
				0.9999999403953552,
				0.9999999403953552,
				0.9999998807907104
			],
			"translation":[
				12.928653717041016,
				-31.92266845703125,
				0.6262202262878418
			]
		},
		{
			"name":"explosion_locator_12",
			"rotation":[
				0.6532815098762512,
				-0.27059805393218994,
				0.27059805393218994,
				0.6532815098762512
			],
			"scale":[
				0.9999999403953552,
				0.9999999403953552,
				0.9999998807907104
			],
			"translation":[
				0.8924450874328613,
				-31.92266845703125,
				9.218779563903809
			]
		},
		{
			"name":"explosion_locator_24",
			"rotation":[
				0.6532815098762512,
				-0.27059805393218994,
				0.27059805393218994,
				0.6532815098762512
			],
			"scale":[
				0.9999999403953552,
				0.9999999403953552,
				0.9999998807907104
			],
			"translation":[
				-3.2846531867980957,
				-19.325115203857422,
				9.126945495605469
			]
		},
		{
			"name":"explosion_locator_25",
			"rotation":[
				0.6532815098762512,
				-0.27059805393218994,
				0.27059805393218994,
				0.6532815098762512
			],
			"scale":[
				0.9999999403953552,
				0.9999999403953552,
				0.9999998807907104
			],
			"translation":[
				7.496975421905518,
				-31.925907135009766,
				5.586245059967041
			]
		},
		{
			"name":"explosion_locator_26",
			"rotation":[
				0.6532815098762512,
				-0.27059805393218994,
				0.27059805393218994,
				0.6532815098762512
			],
			"scale":[
				0.9999999403953552,
				0.9999999403953552,
				0.9999998807907104
			],
			"translation":[
				0.020031452178955078,
				-31.92591094970703,
				13.534843444824219
			]
		},
		{
			"name":"explosion_locator_39",
			"rotation":[
				0.6532815098762512,
				-0.27059805393218994,
				0.27059805393218994,
				0.6532815098762512
			],
			"scale":[
				0.9999999403953552,
				0.9999999403953552,
				0.9999998807907104
			],
			"translation":[
				3.9629950523376465,
				-31.926082611083984,
				9.591879844665527
			]
		},
		{
			"name":"explosion_locator_40",
			"rotation":[
				0.6532815098762512,
				-0.27059805393218994,
				0.27059805393218994,
				0.6532815098762512
			],
			"scale":[
				0.9999999403953552,
				0.9999999403953552,
				0.9999998807907104
			],
			"translation":[
				10.943418502807617,
				-24.30364990234375,
				2.611455202102661
			]
		},
		{
			"name":"explosion_locator_41",
			"rotation":[
				0.6532815098762512,
				-0.27059805393218994,
				0.27059805393218994,
				0.6532815098762512
			],
			"scale":[
				0.9999999403953552,
				0.9999999403953552,
				0.9999998807907104
			],
			"translation":[
				-4.0436015129089355,
				-19.154186248779297,
				4.2678961753845215
			]
		},
		{
			"name":"explosion_locator_42",
			"rotation":[
				0.6532815098762512,
				-0.27059805393218994,
				0.27059805393218994,
				0.6532815098762512
			],
			"scale":[
				0.9999999403953552,
				0.9999999403953552,
				0.9999998807907104
			],
			"translation":[
				-6.777973175048828,
				-24.445507049560547,
				7.002269744873047
			]
		},
		{
			"children":[
				24,
				25,
				26,
				27,
				28,
				29,
				30,
				31,
				32,
				33,
				34
			],
			"name":"cube3",
			"rotation":[
				0,
				0.3826834261417389,
				0,
				0.9238795638084412
			],
			"translation":[
				9.58462905883789,
				2.6232147216796875,
				9.556410789489746
			]
		},
		{
			"name":"explosion_locator_13",
			"rotation":[
				0.27059805393218994,
				-0.6532815098762512,
				0.6532815098762512,
				0.27059805393218994
			],
			"scale":[
				0.9999999403953552,
				0.9999999403953552,
				0.9999998807907104
			],
			"translation":[
				-7.314175128936768,
				-31.92261505126953,
				4.405836582183838
			]
		},
		{
			"name":"explosion_locator_14",
			"rotation":[
				0.27059805393218994,
				-0.6532815098762512,
				0.6532815098762512,
				0.27059805393218994
			],
			"scale":[
				0.9999999403953552,
				0.9999999403953552,
				0.9999998807907104
			],
			"translation":[
				-2.673038959503174,
				-19.157575607299805,
				-6.992568492889404
			]
		},
		{
			"name":"explosion_locator_15",
			"rotation":[
				0.27059805393218994,
				-0.6532815098762512,
				0.6532815098762512,
				0.27059805393218994
			],
			"scale":[
				0.9999999403953552,
				0.9999999403953552,
				0.9999998807907104
			],
			"translation":[
				-3.9011011123657227,
				-19.157567977905273,
				9.65367317199707
			]
		},
		{
			"name":"explosion_locator_16",
			"rotation":[
				0.27059805393218994,
				-0.6532815098762512,
				0.6532815098762512,
				0.27059805393218994
			],
			"scale":[
				0.9999999403953552,
				0.9999999403953552,
				0.9999998807907104
			],
			"translation":[
				6.998599529266357,
				-24.867145538330078,
				6.516211986541748
			]
		},
		{
			"name":"explosion_locator_27",
			"rotation":[
				0.27059805393218994,
				-0.6532815098762512,
				0.6532815098762512,
				0.27059805393218994
			],
			"scale":[
				0.9999999403953552,
				0.9999999403953552,
				0.9999998807907104
			],
			"translation":[
				-2.9966840744018555,
				-31.742313385009766,
				5.225923538208008
			]
		},
		{
			"name":"explosion_locator_28",
			"rotation":[
				0.27059805393218994,
				-0.6532815098762512,
				0.6532815098762512,
				0.27059805393218994
			],
			"scale":[
				0.9999999403953552,
				0.9999999403953552,
				0.9999998807907104
			],
			"translation":[
				-5.089554786682129,
				-22.679824829101562,
				8.465219497680664
			]
		},
		{
			"name":"explosion_locator_29",
			"rotation":[
				0.27059805393218994,
				-0.6532815098762512,
				0.6532815098762512,
				0.27059805393218994
			],
			"scale":[
				0.9999999403953552,
				0.9999999403953552,
				0.9999998807907104
			],
			"translation":[
				-11.979333877563477,
				-27.47532844543457,
				1.5754426717758179
			]
		},
		{
			"name":"explosion_locator_30",
			"rotation":[
				0.27059805393218994,
				-0.6532815098762512,
				0.6532815098762512,
				0.27059805393218994
			],
			"scale":[
				0.9999999403953552,
				0.9999999403953552,
				0.9999998807907104
			],
			"translation":[
				-4.26370906829834,
				-23.750934600830078,
				-9.25110149383545
			]
		},
		{
			"name":"explosion_locator_31",
			"rotation":[
				0.27059805393218994,
				-0.6532815098762512,
				0.6532815098762512,
				0.27059805393218994
			],
			"scale":[
				0.9999999403953552,
				0.9999999403953552,
				0.9999998807907104
			],
			"translation":[
				9.527299880981445,
				-19.154285430908203,
				-2.9035983085632324
			]
		},
		{
			"name":"explosion_locator_43",
			"rotation":[
				0.27059805393218994,
				-0.6532815098762512,
				0.6532815098762512,
				0.27059805393218994
			],
			"scale":[
				0.9999999403953552,
				0.9999999403953552,
				0.9999998807907104
			],
			"translation":[
				-8.975442886352539,
				-28.263999938964844,
				-4.539370059967041
			]
		},
		{
			"name":"explosion_locator_44",
			"rotation":[
				0.27059805393218994,
				-0.6532815098762512,
				0.6532815098762512,
				0.27059805393218994
			],
			"scale":[
				0.9999999403953552,
				0.9999999403953552,
				0.9999998807907104
			],
			"translation":[
				11.240803718566895,
				-31.926040649414062,
				-2.3139665126800537
			]
		},
		{
			"name":"explosion_locator_45",
			"rotation":[
				0.27059805393218994,
				-0.6532815098762512,
				0.6532815098762512,
				0.27059805393218994
			],
			"scale":[
				0.9999999403953552,
				0.9999999403953552,
				0.9999998807907104
			],
			"translation":[
				-0.019986150786280632,
				-31.926040649414062,
				13.5347900390625
			]
		},
		{
			"name":"explosion_locator_46",
			"rotation":[
				0.27059805393218994,
				-0.6532815098762512,
				0.6532815098762512,
				0.27059805393218994
			],
			"scale":[
				0.9999999403953552,
				0.9999999403953552,
				0.9999998807907104
			],
			"translation":[
				5.047120094299316,
				-25.20755386352539,
				8.46768569946289
			]
		},
		{
			"children":[
				36,
				37,
				38,
				39,
				40,
				41,
				42,
				43,
				44,
				45,
				46,
				47,
				48
			],
			"name":"cube4",
			"rotation":[
				0,
				0.9238795638084412,
				0,
				0.3826834559440613
			],
			"scale":[
				0.9999999403953552,
				1,
				0.9999999403953552
			],
			"translation":[
				9.584702491760254,
				2.623171806335449,
				-9.556413650512695
			]
		},
		{
			"children":[
				12,
				23,
				35,
				49
			],
			"name":"rotate_back"
		},
		{
			"name":"cube1.001",
			"rotation":[
				0,
				-0.9238795638084412,
				0,
				0.3826834559440613
			],
			"scale":[
				0.9999999403953552,
				1,
				0.9999999403953552
			],
			"translation":[
				-9.58470344543457,
				-10.145160675048828,
				-9.556412696838379
			]
		},
		{
			"name":"cube2.001",
			"rotation":[
				0,
				-0.3826834261417389,
				0,
				0.9238795638084412
			],
			"translation":[
				-9.584626197814941,
				-10.145159721374512,
				9.556413650512695
			]
		},
		{
			"name":"cube3.001",
			"rotation":[
				0,
				0.3826834261417389,
				0,
				0.9238795638084412
			],
			"translation":[
				9.58462905883789,
				-10.145159721374512,
				9.556410789489746
			]
		},
		{
			"name":"cube4.001",
			"rotation":[
				0,
				0.9238795638084412,
				0,
				0.3826834559440613
			],
			"scale":[
				0.9999999403953552,
				1,
				0.9999999403953552
			],
			"translation":[
				9.584704399108887,
				-10.145159721374512,
				-9.556413650512695
			]
		},
		{
			"children":[
				51,
				52,
				53,
				54
			],
			"name":"rotate_mid"
		},
		{
			"name":"cube1.002",
			"rotation":[
				0,
				-0.9238795638084412,
				0,
				0.3826834559440613
			],
			"scale":[
				0.9999999403953552,
				1,
				0.9999999403953552
			],
			"translation":[
				-9.58470344543457,
				-22.916887283325195,
				-9.556412696838379
			]
		},
		{
			"name":"cube2.002",
			"rotation":[
				0,
				-0.3826834261417389,
				0,
				0.9238795638084412
			],
			"translation":[
				-9.584626197814941,
				-22.916919708251953,
				9.556413650512695
			]
		},
		{
			"name":"cube3.002",
			"rotation":[
				0,
				0.3826834261417389,
				0,
				0.9238795638084412
			],
			"translation":[
				9.58462905883789,
				-22.916887283325195,
				9.556410789489746
			]
		},
		{
			"name":"cube4.002",
			"rotation":[
				0,
				0.9238795638084412,
				0,
				0.3826834559440613
			],
			"scale":[
				0.9999999403953552,
				1,
				0.9999999403953552
			],
			"translation":[
				9.584704399108887,
				-22.916919708251953,
				-9.556413650512695
			]
		},
		{
			"children":[
				56,
				57,
				58,
				59
			],
			"name":"rotate_front"
		},
		{
			"name":"engine_large_01",
			"rotation":[
				0.7071067690849304,
				0,
				0,
				0.7071067690849304
			],
			"translation":[
				3.814697265625e-05,
				7.993099212646484,
				-7.629394644936838e-07
			]
		},
		{
			"name":"exhaust",
			"rotation":[
				0.7071067690849304,
				0,
				0,
				0.7071067690849304
			],
			"translation":[
				3.814697265625e-05,
				7.993099212646484,
				-7.629394644936838e-07
			]
		},
		{
			"children":[
				50,
				55,
				60,
				61,
				62
			],
			"name":"core",
			"translation":[
				-3.814697265625e-05,
				10.14858627319336,
				7.629394644936838e-07
			]
		},
		{
			"children":[
				63
			],
			"name":"main_body"
		},
		{
			"children":[
				64
			],
			"name":"root",
			"rotation":[
				-0.7071067690849304,
				0,
				0,
				0.7071067690849304
			]
		},
		{
			"children":[
				65
			],
			"name":"io_pdx_rig"
		},
		{
			"mesh":0,
			"name":"star_eater_01_core_g_body_g_body",
			"skin":0
		}
	],
	"materials":[
		{
			"emissiveFactor":[
				1,
				1,
				1
			],
			"emissiveTexture":{
				"index":0
			},
			"extensions":{
				"KHR_materials_emissive_strength":{
					"emissiveStrength":31.39999771118164
				},
				"KHR_materials_specular":{
					"specularTexture":{
						"index":1
					}
				}
			},
			"name":"PDXmat_star_eater_01_core_g_body_g_bodyShape",
			"normalTexture":{
				"index":2
			},
			"pbrMetallicRoughness":{
				"baseColorTexture":{
					"index":3
				},
				"metallicRoughnessTexture":{
					"index":4
				}
			}
		}
	],
	"meshes":[
		{
			"name":"star_eater_01_core_g_body_g_bodyShape",
			"primitives":[
				{
					"attributes":{
						"POSITION":0,
						"NORMAL":1,
						"TEXCOORD_0":2,
						"JOINTS_0":3,
						"WEIGHTS_0":4
					},
					"indices":5,
					"material":0
				}
			]
		}
	],
	"textures":[
		{
			"sampler":0,
			"source":0
		},
		{
			"sampler":0,
			"source":1
		},
		{
			"sampler":0,
			"source":0
		},
		{
			"sampler":0,
			"source":2
		},
		{
			"sampler":0,
			"source":3
		}
	],
	"images":[
		{
			"mimeType":"image/png",
			"name":"reptilian_01_star_eater_normal",
			"uri":"reptilian_01_star_eater_normal.png"
		},
		{
			"mimeType":"image/png",
			"name":"reptilian_01_star_eater_specular",
			"uri":"reptilian_01_star_eater_specular.png"
		},
		{
			"mimeType":"image/png",
			"name":"reptilian_01_star_eater_diffuse",
			"uri":"reptilian_01_star_eater_diffuse.png"
		},
		{
			"mimeType":"image/png",
			"name":"reptilian_01_star_eater_specular",
			"uri":"reptilian_01_star_eater_specular-1.png"
		}
	],
	"skins":[
		{
			"inverseBindMatrices":6,
			"joints":[
				65,
				64,
				63,
				50,
				12,
				23,
				35,
				49,
				55,
				51,
				52,
				53,
				54,
				60,
				56,
				57,
				58,
				59
			],
			"name":"io_pdx_rig"
		}
	],
	"accessors":[
		{
			"bufferView":0,
			"componentType":5126,
			"count":14603,
			"max":[
				19.16933822631836,
				19.112829208374023,
				19.154281616210938
			],
			"min":[
				-19.16933822631836,
				-19.112829208374023,
				-19.154281616210938
			],
			"type":"VEC3"
		},
		{
			"bufferView":1,
			"componentType":5126,
			"count":14603,
			"type":"VEC3"
		},
		{
			"bufferView":2,
			"componentType":5126,
			"count":14603,
			"type":"VEC2"
		},
		{
			"bufferView":3,
			"componentType":5121,
			"count":14603,
			"type":"VEC4"
		},
		{
			"bufferView":4,
			"componentType":5126,
			"count":14603,
			"type":"VEC4"
		},
		{
			"bufferView":5,
			"componentType":5123,
			"count":25980,
			"type":"SCALAR"
		},
		{
			"bufferView":6,
			"componentType":5126,
			"count":18,
			"type":"MAT4"
		}
	],
	"bufferViews":[
		{
			"buffer":0,
			"byteLength":175236,
			"byteOffset":0,
			"target":34962
		},
		{
			"buffer":0,
			"byteLength":175236,
			"byteOffset":175236,
			"target":34962
		},
		{
			"buffer":0,
			"byteLength":116824,
			"byteOffset":350472,
			"target":34962
		},
		{
			"buffer":0,
			"byteLength":58412,
			"byteOffset":467296,
			"target":34962
		},
		{
			"buffer":0,
			"byteLength":233648,
			"byteOffset":525708,
			"target":34962
		},
		{
			"buffer":0,
			"byteLength":51960,
			"byteOffset":759356,
			"target":34963
		},
		{
			"buffer":0,
			"byteLength":1152,
			"byteOffset":811316
		}
	],
	"samplers":[
		{
			"magFilter":9729,
			"minFilter":9987
		}
	],
	"buffers":[
		{
			"byteLength":812468,
			"uri":"satr_eater.bin"
		}
	]
}
